<?xml version="1.0" encoding="UTF-8"?>
<svg id="Layer_2" data-name="Layer 2" xmlns="http://www.w3.org/2000/svg" viewBox="0 0 784.24 985.78">
  <defs>
    <style>
      .cls-1 {
        fill: #8dc63f;
      }
    </style>
  </defs>
  <g id="Layer_1-2" data-name="Layer 1">
    <path class="cls-1" d="M361.41,517.48C323.5,245.49,265.42-27.91,191.31,59.41c-105.74,124.59,52.06,332.42,170.1,458.07M361.43,517.5s0,0,0-.01c0,0,0,0,0,0,0,0-.01-.01-.02-.01,0,0,0,.01,0,.02C176.11,665.98,0,788.72,0,788.72l308.55-88.68s19.18-78.32,52.86-182.51c32.7,234.66,50.39,468.25,50.39,468.25l58.95-362.11s-49.57-42.57-109.33-106.17M761.18,19.19c-172.17-107.62-323.34,261.98-399.75,498.3C604.7,322.58,863.8,83.33,761.18,19.19"/>
  </g>
</svg>