<?xml version="1.0" encoding="UTF-8"?>
<svg id="Layer_2" data-name="Layer 2" xmlns="http://www.w3.org/2000/svg" viewBox="0 0 1847.56 985.78">
  <defs>
    <style>
      .cls-1 {
        fill: #231f20;
      }

      .cls-2 {
        fill: #8dc63f;
      }
    </style>
  </defs>
  <g id="Layer_1-2" data-name="Layer 1">
    <g>
      <g>
        <g>
          <path class="cls-1" d="M741.05,499.52l-46.16-72.76-41.99,72.76h-27.38l56.07-93.62-57.11-90.23h28.43l45.12,71.45,42.25-71.45h27.38l-56.33,92.06,57.9,91.8h-28.17Z"/>
          <path class="cls-1" d="M902.22,369.13c12,9.74,19.38,22.78,22.17,39.12h-25.04c-1.74-10.26-6.48-18.3-14.21-24.12-7.74-5.82-17.34-8.74-28.82-8.74-8.35,0-15.95,1.92-22.82,5.74-6.87,3.83-12.39,9.69-16.56,17.6-4.17,7.91-6.26,17.69-6.26,29.34s2.09,21.43,6.26,29.34c4.17,7.91,9.69,13.78,16.56,17.6,6.87,3.83,14.47,5.74,22.82,5.74,11.47,0,21.08-2.96,28.82-8.87,7.73-5.91,12.47-13.99,14.21-24.25h25.04c-2.78,16.52-10.17,29.6-22.17,39.25-12,9.65-27.12,14.47-45.38,14.47-13.74,0-25.91-2.96-36.51-8.87-10.61-5.91-18.91-14.38-24.9-25.43-6-11.04-9-24.03-9-38.99s3-27.99,9-39.12c6-11.12,14.3-19.64,24.9-25.56,10.6-5.91,22.78-8.87,36.51-8.87,18.26,0,33.38,4.87,45.38,14.6Z"/>
          <path class="cls-1" d="M1086.07,433.02h-114.49c.52,16.34,5.17,28.6,13.95,36.77,8.78,8.17,19.51,12.26,32.21,12.26,11.47,0,21.08-2.91,28.82-8.74,7.73-5.82,12.47-13.6,14.21-23.34h25.3c-1.74,9.91-5.61,18.78-11.6,26.6-6,7.82-13.78,13.91-23.34,18.26-9.56,4.35-20.34,6.52-32.34,6.52-13.74,0-25.91-2.96-36.51-8.87-10.61-5.91-18.91-14.38-24.91-25.43-6-11.04-9-24.03-9-38.99s3-27.99,9-39.12c6-11.12,14.3-19.64,24.91-25.56,10.6-5.91,22.77-8.87,36.51-8.87s26.03,2.96,36.38,8.87c10.34,5.91,18.26,13.82,23.73,23.73,5.48,9.91,8.22,20.86,8.22,32.86,0,5.05-.35,9.39-1.04,13.04ZM1057.91,394.94c-4-7.13-9.48-12.43-16.43-15.91-6.96-3.48-14.52-5.21-22.69-5.21-13.04,0-23.99,4.04-32.86,12.13s-13.65,19.95-14.34,35.6h91.54c.52-10.6-1.22-19.47-5.22-26.6Z"/>
          <path class="cls-1" d="M1141.88,306.54v192.98h-23.73v-192.98h23.73Z"/>
          <path class="cls-1" d="M1310.61,433.02h-114.49c.52,16.34,5.17,28.6,13.95,36.77,8.78,8.17,19.51,12.26,32.21,12.26,11.47,0,21.08-2.91,28.82-8.74,7.73-5.82,12.47-13.6,14.21-23.34h25.3c-1.74,9.91-5.61,18.78-11.6,26.6-6,7.82-13.78,13.91-23.34,18.26-9.56,4.35-20.34,6.52-32.34,6.52-13.74,0-25.91-2.96-36.51-8.87-10.61-5.91-18.91-14.38-24.91-25.43-6-11.04-9-24.03-9-38.99s3-27.99,9-39.12c6-11.12,14.3-19.64,24.91-25.56,10.6-5.91,22.77-8.87,36.51-8.87s26.03,2.96,36.38,8.87c10.34,5.91,18.26,13.82,23.73,23.73,5.48,9.91,8.22,20.86,8.22,32.86,0,5.05-.35,9.39-1.04,13.04ZM1282.44,394.94c-4-7.13-9.48-12.43-16.43-15.91-6.96-3.48-14.52-5.21-22.69-5.21-13.04,0-23.99,4.04-32.86,12.13-8.87,8.08-13.65,19.95-14.34,35.6h91.54c.52-10.6-1.22-19.47-5.22-26.6Z"/>
          <path class="cls-1" d="M1387.02,362.21c9.04-5.48,19.82-8.22,32.34-8.22v25.82h-7.3c-13.39,0-24.34,3.44-32.86,10.3-8.52,6.87-12.78,18.21-12.78,34.03v75.37h-23.73v-143.17h23.73v28.95c4.69-9.91,11.56-17.6,20.6-23.08Z"/>
          <path class="cls-1" d="M1536.84,364.95c9.65,6.96,16.38,16.26,20.21,27.91v-36.51h23.73v143.17h-23.73v-36.51c-3.83,11.65-10.56,20.95-20.21,27.91-9.65,6.96-21.43,10.43-35.34,10.43-12.69,0-23.99-2.96-33.9-8.87-9.91-5.91-17.69-14.38-23.34-25.43-5.65-11.04-8.48-24.03-8.48-38.99s2.82-27.99,8.48-39.12c5.65-11.12,13.43-19.64,23.34-25.56,9.91-5.91,21.21-8.87,33.9-8.87,13.91,0,25.69,3.48,35.34,10.43ZM1473.2,389.6c-8.78,9.3-13.17,22.13-13.17,38.47s4.39,29.17,13.17,38.47c8.78,9.3,20.47,13.95,35.08,13.95,9.39,0,17.77-2.17,25.17-6.52,7.39-4.34,13.17-10.47,17.34-18.39,4.17-7.91,6.26-17.08,6.26-27.51s-2.09-19.64-6.26-27.64c-4.17-7.99-9.95-14.12-17.34-18.38-7.39-4.26-15.78-6.39-25.17-6.39-14.6,0-26.3,4.65-35.08,13.95Z"/>
          <path class="cls-1" d="M1686.92,478.66v20.86h-17.73c-14.6,0-25.52-3.48-32.73-10.43-7.22-6.95-10.82-18.6-10.82-34.95v-77.19h-21.39v-20.6h21.39v-35.73h23.99v35.73h37.03v20.6h-37.03v77.71c0,9.22,1.7,15.52,5.09,18.91,3.39,3.39,9.26,5.09,17.6,5.09h14.6Z"/>
          <path class="cls-1" d="M1846.52,433.02h-114.49c.52,16.34,5.17,28.6,13.95,36.77,8.78,8.17,19.51,12.26,32.21,12.26,11.47,0,21.08-2.91,28.82-8.74,7.73-5.82,12.47-13.6,14.21-23.34h25.3c-1.74,9.91-5.61,18.78-11.6,26.6-6,7.82-13.78,13.91-23.34,18.26-9.56,4.35-20.34,6.52-32.34,6.52-13.74,0-25.91-2.96-36.51-8.87-10.61-5.91-18.91-14.38-24.91-25.43-6-11.04-9-24.03-9-38.99s3-27.99,9-39.12c6-11.12,14.3-19.64,24.91-25.56,10.6-5.91,22.77-8.87,36.51-8.87s26.03,2.96,36.38,8.87c10.34,5.91,18.26,13.82,23.73,23.73,5.48,9.91,8.22,20.86,8.22,32.86,0,5.05-.35,9.39-1.04,13.04ZM1818.35,394.94c-4-7.13-9.48-12.43-16.43-15.91-6.96-3.48-14.52-5.21-22.69-5.21-13.04,0-23.99,4.04-32.86,12.13-8.87,8.08-13.65,19.95-14.34,35.6h91.54c.52-10.6-1.22-19.47-5.22-26.6Z"/>
        </g>
        <g>
          <path class="cls-1" d="M739.42,694.74h-60.35l-10.02,29.38h-40.99l58.98-159.86h44.86l58.98,159.86h-41.44l-10.02-29.38ZM729.4,665.14l-20.04-59.21-20.27,59.21h40.31Z"/>
          <path class="cls-1" d="M904.52,609.01c11.08,9.03,18.06,21.45,20.95,37.23h-41.22c-1.22-5.46-3.72-9.71-7.51-12.75-3.8-3.03-8.58-4.55-14.35-4.55-6.83,0-12.45,2.7-16.85,8.08-4.41,5.39-6.6,13.25-6.6,23.57s2.2,18.18,6.6,23.57c4.4,5.39,10.02,8.08,16.85,8.08,5.77,0,10.55-1.52,14.35-4.55,3.79-3.04,6.3-7.29,7.51-12.75h41.22c-2.89,15.79-9.87,28.2-20.95,37.23-11.08,9.03-24.82,13.55-41.22,13.55-12.45,0-23.49-2.62-33.13-7.86-9.64-5.24-17.19-12.79-22.66-22.66-5.47-9.87-8.2-21.41-8.2-34.61s2.69-24.94,8.08-34.73c5.39-9.79,12.94-17.31,22.66-22.54,9.71-5.24,20.8-7.86,33.25-7.86,16.4,0,30.13,4.52,41.22,13.55Z"/>
          <path class="cls-1" d="M1019.06,602.06c6.98,4.41,12.14,10.4,15.48,17.99v-23h38.71v127.07h-38.71v-23c-3.34,7.59-8.5,13.59-15.48,17.99-6.98,4.41-15.34,6.6-25.05,6.6-10.47,0-19.85-2.62-28.12-7.86-8.28-5.24-14.8-12.79-19.58-22.66-4.78-9.87-7.17-21.41-7.17-34.61s2.39-24.94,7.17-34.73c4.78-9.79,11.31-17.31,19.58-22.54,8.27-5.24,17.65-7.86,28.12-7.86,9.71,0,18.06,2.2,25.05,6.6ZM986.38,637.81c-5.09,5.46-7.63,13.06-7.63,22.77s2.54,17.31,7.63,22.77c5.08,5.47,11.8,8.2,20.15,8.2s14.92-2.81,20.15-8.43c5.24-5.61,7.86-13.13,7.86-22.54s-2.62-17.11-7.86-22.66c-5.24-5.54-11.96-8.31-20.15-8.31s-15.07,2.73-20.15,8.2Z"/>
          <path class="cls-1" d="M1173.45,602.06c6.98,4.41,12.07,10.4,15.26,17.99v-64.45h38.94v168.51h-38.94v-23c-3.19,7.59-8.28,13.59-15.26,17.99-6.98,4.41-15.34,6.6-25.05,6.6-10.47,0-19.85-2.62-28.12-7.86-8.28-5.24-14.8-12.79-19.58-22.66-4.78-9.87-7.17-21.41-7.17-34.61s2.39-24.94,7.17-34.73c4.78-9.79,11.31-17.31,19.58-22.54,8.27-5.24,17.65-7.86,28.12-7.86,9.71,0,18.06,2.2,25.05,6.6ZM1140.78,637.81c-5.09,5.46-7.63,13.06-7.63,22.77s2.54,17.31,7.63,22.77c5.08,5.47,11.8,8.2,20.15,8.2s14.92-2.81,20.15-8.43c5.24-5.61,7.86-13.13,7.86-22.54s-2.62-17.11-7.86-22.66c-5.24-5.54-11.96-8.31-20.15-8.31s-15.07,2.73-20.15,8.2Z"/>
          <path class="cls-1" d="M1374.07,667.64h-88.13c.45,9.56,2.88,16.44,7.29,20.61,4.4,4.18,10.02,6.26,16.85,6.26,5.77,0,10.55-1.44,14.35-4.33,3.79-2.88,6.3-6.6,7.51-11.16h41.22c-1.67,8.96-5.32,16.97-10.93,24.03-5.62,7.06-12.75,12.6-21.41,16.62-8.65,4.02-18.3,6.03-28.92,6.03-12.45,0-23.49-2.62-33.13-7.86-9.64-5.24-17.19-12.79-22.66-22.66-5.47-9.87-8.2-21.41-8.2-34.61s2.69-24.94,8.08-34.73c5.39-9.79,12.94-17.31,22.66-22.54,9.71-5.24,20.8-7.86,33.25-7.86s23.68,2.58,33.25,7.74c9.56,5.16,16.97,12.41,22.2,21.75,5.24,9.34,7.86,20.08,7.86,32.22,0,3.19-.38,6.68-1.14,10.47ZM1329.1,632.46c-4.63-4.17-10.36-6.26-17.19-6.26s-13.06,2.13-17.76,6.38c-4.71,4.25-7.37,10.47-7.97,18.67h49.64c.15-8.35-2.09-14.61-6.72-18.79Z"/>
          <path class="cls-1" d="M1597.01,610.14c8.96,9.64,13.44,23.04,13.44,40.19v73.78h-38.71v-69.23c0-8.04-2.16-14.31-6.49-18.79-4.33-4.48-10.21-6.72-17.65-6.72s-13.86,2.39-18.33,7.17c-4.48,4.78-6.72,11.5-6.72,20.15v67.41h-38.94v-69.23c0-8.04-2.13-14.31-6.38-18.79-4.25-4.48-10.1-6.72-17.53-6.72s-13.89,2.36-18.44,7.06c-4.56,4.71-6.83,11.46-6.83,20.27v67.41h-38.94v-127.07h38.94v21.63c3.34-7.13,8.46-12.75,15.37-16.85,6.91-4.1,14.99-6.15,24.25-6.15,9.71,0,18.29,2.24,25.73,6.72,7.44,4.48,13.05,10.9,16.85,19.24,4.4-7.89,10.44-14.19,18.1-18.9,7.66-4.7,16.13-7.06,25.39-7.06,15.63,0,27.93,4.82,36.89,14.46Z"/>
          <path class="cls-1" d="M1665.78,597.05l30.51,77.88,28.47-77.88h43.04l-79.25,187.64h-42.81l29.83-65.36-53.29-122.28h43.5Z"/>
        </g>
        <polygon class="cls-1" points="1727.35 600.37 1629.26 823.18 1671.62 823.18 1767.46 600.37 1727.35 600.37"/>
      </g>
      <g>
        <path class="cls-1" d="M1350.38,822v-56.7h8.93v20.38c1.36-1.91,2.86-3.34,4.5-4.29,1.63-.95,3.39-1.43,5.27-1.43,3.96,0,7.32,1.79,10.06,5.39,2.74,3.59,4.11,8.88,4.11,15.88s-1.4,12.34-4.21,16.1c-2.81,3.76-6.1,5.64-9.88,5.64-1.93,0-3.84-.6-5.72-1.8s-3.48-2.93-4.79-5.2v6.03h-8.28ZM1359.23,800.57c0,3.54.33,6.25,1.01,8.11.67,1.86,1.62,3.28,2.86,4.25,1.24.97,2.54,1.45,3.91,1.45,1.96,0,3.64-1.03,5.03-3.08,1.39-2.06,2.09-5.31,2.09-9.76,0-4.68-.7-8.06-2.11-10.14-1.41-2.08-3.19-3.12-5.36-3.12s-3.82,1.01-5.26,3.03c-1.44,2.02-2.17,5.11-2.17,9.27Z"/>
        <path class="cls-1" d="M1387.81,780.93h9.51l8.02,29.17,7.87-29.17h9.24l-11.88,39.52-2.29,7.69c-1.01,2.89-2.01,5-3,6.34-.99,1.34-2.26,2.37-3.8,3.09s-3.43,1.08-5.67,1.08c-1.73,0-3.42-.22-5.08-.66l-.77-8.51c1.39.33,2.64.5,3.75.5,1.7,0,3.1-.57,4.2-1.7,1.1-1.13,1.99-3.19,2.7-6.17l-12.81-41.2Z"/>
        <path class="cls-1" d="M1444.77,822l16.07-29.51-14.6-27.19h10.97l9.21,16.96,9.26-16.96h10.86l-14.6,27.12,16.07,29.57h-11.32l-10.32-19.22-10.34,19.22h-11.25Z"/>
        <path class="cls-1" d="M1491.68,806.88v-10.87h17.52v10.87h-17.52Z"/>
        <path class="cls-1" d="M1517.28,822v-56.7h9.36v56.7h-9.36Z"/>
        <path class="cls-1" d="M1567.79,822h-8.93v-20.98c0-4.21-.17-7.01-.5-8.4-.34-1.39-.96-2.46-1.88-3.21-.92-.75-1.95-1.12-3.11-1.12-1.5,0-2.85.48-4.06,1.45-1.21.97-2.06,2.3-2.55,4.01-.49,1.7-.73,4.92-.73,9.64v18.62h-8.93v-41.07h8.28v5.99c1.47-2.32,3.13-4.06,4.97-5.22,1.84-1.16,3.89-1.74,6.13-1.74,2.6,0,4.8.68,6.59,2.03,1.79,1.35,3.03,3.1,3.71,5.23.68,2.13,1.02,5.21,1.02,9.23v25.55Z"/>
        <path class="cls-1" d="M1607.81,793.03l-8.78,1.93c-.65-4.31-2.68-6.46-6.11-6.46-2.2,0-3.98.93-5.33,2.79-1.35,1.86-2.02,5-2.02,9.43,0,4.89.67,8.34,2.02,10.36,1.34,2.02,3.14,3.03,5.39,3.03,1.68,0,3.06-.57,4.15-1.72,1.09-1.15,1.86-3.18,2.33-6.09l8.78,1.82c-1.81,9.9-7,14.85-15.59,14.85-5.49,0-9.57-2.09-12.22-6.28-2.66-4.18-3.98-9.22-3.98-15.11,0-7.05,1.5-12.42,4.51-16.1,3.01-3.68,6.95-5.52,11.83-5.52,3.95,0,7.17,1.04,9.66,3.13,2.49,2.09,4.28,5.4,5.36,9.94Z"/>
      </g>
    </g>
    <path class="cls-2" d="M361.41,517.48C323.5,245.49,265.42-27.91,191.31,59.41c-105.74,124.59,52.06,332.42,170.1,458.07M361.43,517.5s0,0,0-.01c0,0,0,0,0,0,0,0-.01-.01-.02-.01,0,0,0,.01,0,.02C176.11,665.98,0,788.72,0,788.72l308.55-88.68s19.18-78.32,52.86-182.51c32.7,234.66,50.39,468.25,50.39,468.25l58.95-362.11s-49.57-42.57-109.33-106.17M761.18,19.19c-172.17-107.62-323.34,261.98-399.75,498.3C604.7,322.58,863.8,83.33,761.18,19.19"/>
  </g>
</svg>