<svg width="394" height="208" viewBox="0 0 394 208" fill="none" xmlns="http://www.w3.org/2000/svg">
<path d="M350.7 54.2008H253.4L272.5 21.2008L222 33.7008L196.7 0.800781L171.4 33.7008L120.9 21.2008L140 54.2008H0.0996094V126.601C0.0996094 126.601 0.099617 174.201 42.5996 174.201H393.1V101.801C393.1 101.801 393.1 54.2008 350.7 54.2008Z" fill="white"/>
<path d="M0.0996094 60.7012V125.201C0.0996094 125.201 0.099617 167.701 42.5996 167.701H393.1V103.201C393.1 103.201 393.1 60.7012 350.6 60.7012H0.0996094Z" fill="#113B6A"/>
<path d="M242.2 60.7004L259.2 31.1004L219.4 41.0004L196.6 11.4004L173.9 41.0004L134.1 31.1004L151.1 60.7004H242.2Z" fill="#B10346"/>
<path d="M345.1 90.1C340.8 88.6 337.5 87.5 329.9 87.5C314.1 87.5 302.6 98.1 302.6 114C302.6 130.4 313.5 140.9 329.8 140.9C337.9 140.9 342.8 139.6 345.6 138.6V111.7H327.3V117.8H338.2V133.5C336.3 133.9 335 134.4 329.9 134.4C319.2 134.4 310.4 126.3 310.4 114.2C310.4 102.7 318.3 94 330.2 94C336.9 94 340.8 95.2 344.4 97.6L345.1 90.1ZM267.1 95H274.2C281 95 284.6 98 284.6 102.6C284.6 107.6 280.5 110.7 273.4 110.7H267.1V95ZM259.7 140.1H267.1V117.2H271.5C275.4 117.2 277.9 117.2 280.2 122.2L288.1 140.1H296.5L286.7 119.5C285.1 116.3 284 115.2 281.7 114.3V114.2C287.7 113.2 292.4 108.7 292.4 102.4C292.4 90 282.6 88.4 272.3 88.4H259.6V140.1H259.7ZM200.1 114.3C200.1 130 209.2 141 225 141C240.8 141 249.9 130 249.9 114.3C249.9 99 240.7 87.6 225 87.6C209.3 87.6 200.1 99 200.1 114.3ZM207.9 114.3C207.9 103.8 213.5 94 224.9 94.1C236.3 94 241.9 103.8 241.9 114.3C241.9 124.6 236.8 134.5 224.9 134.5C213 134.5 207.9 124.6 207.9 114.3ZM164.3 94.5H172.1C176.4 94.5 181.6 96.1 181.6 102.2C181.6 109.8 175.5 110.5 168.4 110.5H164.3V94.5ZM164.3 116.6H169.1C175.5 116.6 182.5 117.7 182.5 125.7C182.5 132.7 176.5 134.1 169.8 134.1H164.2V116.6H164.3ZM156.9 140.1H170.7C181.2 140.1 190.4 137.4 190.4 126.3C190.4 119 185.4 114.5 178.4 113.9V113.8C184.9 112.2 189.1 108.6 189.1 101.5C189.1 92 181.7 88.5 171 88.5H157V140.1H156.9ZM88.4996 140.1H95.8996V95.4H95.9996L113.1 140.1H120.4L137.5 95.4H137.6V140.1H145V88.4H132.8L116.9 131.3L100.7 88.4H88.4996V140.1ZM47.5996 140.1H76.4996V133.6H54.9996V116.6H74.5996V110.1H54.9996V95H76.4996V88.5H47.5996V140.1Z" fill="white"/>
<path d="M178 207C175.6 207 174.3 205.5 173.8 204.2C173.6 203.5 173.5 202.8 173.5 201.5V189.7C173.5 188.4 173.5 187.2 174.4 186.1C175.2 184.9 176.5 184.4 178.1 184.4C180.1 184.4 181.6 185.3 182.2 186.8C182.4 187.3 182.5 188 182.5 188.8V191.8C182.5 192 182.4 192.1 182.2 192.1H180.7C180.5 192.1 180.4 192 180.4 191.8V190.4C180.4 188.8 180.4 188 180 187.3C180 187.2 179.8 186.9 179.3 186.6C179.1 186.5 178.7 186.3 178.1 186.3C177.6 186.3 177.1 186.4 176.7 186.7C175.9 187.2 175.5 188 175.6 189.3V200.4C175.6 201.5 175.6 203 176.1 203.9C176.3 204.2 176.5 204.5 176.9 204.7C177.4 205 177.9 205 178.3 205C178.9 205 179.3 204.8 179.5 204.7C180.5 204.2 180.6 203.1 180.6 202.4V198.9C180.6 198.7 180.7 198.6 180.9 198.6H182.4C182.6 198.6 182.7 198.7 182.7 198.9V202.2C182.7 203.3 182.6 203.8 182.4 204.3C182.1 205.4 181.1 207 178 207ZM143.3 207C142.3 207 141.3 206.8 140.7 206.4C140.5 206.3 140.3 206.1 139.9 205.8C139.4 205.3 139 204.8 138.7 204.1C138.5 203.5 138.4 203 138.4 202.2V199.1C138.4 198.9 138.5 198.8 138.7 198.8H140.2C140.4 198.8 140.5 198.9 140.5 199.1V200.8V201.3C140.5 201.6 140.5 201.9 140.5 202.2C140.6 203.4 140.9 204.9 143.4 204.9C143.6 204.9 144.2 204.9 144.8 204.5C145.3 204.2 145.8 203.6 145.8 201.6C145.8 200 145.4 199.3 145.1 198.7C144.3 197.5 142.9 196.1 142.7 196C141.5 194.8 140.7 193.9 140.2 193.2C139.3 192 138.9 190.7 138.9 189C138.9 188.7 138.9 187.9 139 187.3C139.4 185.1 140.9 183.9 143.2 183.9C144.3 183.9 145.2 184.1 145.9 184.6C147.5 185.7 147.5 187.6 147.5 189.2V190.8C147.5 191 147.4 191.1 147.2 191.1H145.7C145.5 191.1 145.4 191 145.4 190.8V188.9C145.4 188.1 145.4 187.9 145.3 187.5C145.1 186.4 144.4 185.8 143.2 185.8C143 185.8 142.4 185.8 141.8 186.1C141.2 186.5 140.9 187.3 140.9 188.7C140.9 190.6 141.4 191.4 142.7 192.9C143.2 193.5 143.6 194 144.2 194.5L144.5 194.8C145.2 195.5 145.8 196.1 146.4 196.9C147.5 198.2 147.8 199.4 147.8 201.3C147.8 202.9 147.5 204.2 147 205C146.7 206.1 145.6 207 143.3 207ZM223.5 206.9C221.4 206.9 219.9 206 219.4 204.3C219.1 203.5 219.1 202.6 219.1 201.9V200.6C219.1 200.4 219.2 200.3 219.4 200.3H220.8C221 200.3 221.1 200.4 221.1 200.6V202.3C221.1 202.8 221.2 203 221.2 203.3C221.4 204.1 221.9 205 223.4 205C224 205 224.4 204.9 224.9 204.7C225.9 204.2 226.1 203.4 226.1 202.2V197.4C226 197.5 225.9 197.5 225.8 197.6C225.6 197.7 224.6 198.3 223.2 198.3C222.7 198.3 221.1 198.2 220.1 197C219.2 196 219.2 194.8 219.2 193.8V190C219.2 188.3 219.2 186.3 221.1 185.2C221.6 184.9 222.5 184.5 223.8 184.5C225.9 184.5 227 185.5 227.4 186C228.3 187.1 228.3 188.5 228.3 189.7V202.1C228.3 203.3 228.2 203.8 228 204.3C227 206.7 224.3 206.9 223.5 206.9ZM223.6 186.3C223.3 186.3 221.8 186.4 221.3 187.7C221.2 188.1 221.2 188.6 221.2 188.7V193.9C221.2 194 221.2 194.4 221.4 194.9C221.7 195.7 222.4 196.1 223.2 196.1C225.2 196.1 225.8 194.7 226 194.2C226.1 193.8 226.2 193.3 226.2 192.4V189.5C226.2 188.8 226.1 187.9 225.9 187.4C225.7 187.1 225.1 186.3 223.6 186.3ZM247.9 206.7C247.7 206.7 247.6 206.6 247.6 206.4V205C247.6 202.5 247.7 200.4 248.8 195.8C249.9 191.1 251.1 188.7 252 186.6H245.6C245.4 186.6 245.3 186.5 245.3 186.3V185C245.3 184.8 245.4 184.7 245.6 184.7H253.9C254.1 184.7 254.2 184.8 254.2 185V186.3V186.4C253.5 188 253 189.2 252.5 190.4C251.3 193.6 250.2 197.9 249.8 200.9C249.7 201.9 249.6 202.9 249.6 203.9V206.3C249.6 206.5 249.5 206.6 249.3 206.6H247.9V206.7ZM238.5 206.7C238.3 206.7 238.2 206.6 238.2 206.4V199.8H232.5C232.3 199.8 232.2 199.7 232.2 199.5V198.1V198L237.8 184.9C237.8 184.8 238 184.7 238.1 184.7H240C240.2 184.7 240.3 184.8 240.3 185V198H242.6C242.8 198 242.9 198.1 242.9 198.3V199.6C242.9 199.8 242.8 199.9 242.6 199.9H240.3V206.5C240.3 206.7 240.2 206.8 240 206.8H238.5V206.7ZM238.2 197.9V188.5L234.3 197.9H238.2ZM211.7 206.7C211.5 206.7 211.4 206.6 211.4 206.4V188.2C211.3 188.2 211.3 188.3 211.2 188.3C210.1 189.1 209.1 189.3 208.4 189.4H208.2C208.1 189.4 208.1 189.4 208 189.3C207.9 189.2 207.9 189.2 207.9 189.1V188C207.9 187.8 208 187.7 208.2 187.7C210.2 187.4 211.1 186.1 211.4 185.6C211.5 185.4 211.5 185.3 211.6 185.1L211.7 184.9C211.7 184.8 211.9 184.7 212 184.7H213.4C213.6 184.7 213.7 184.8 213.7 185V206.5C213.7 206.7 213.6 206.8 213.4 206.8H211.7V206.7ZM187.6 206.7C187.4 206.7 187.3 206.6 187.3 206.4V184.8C187.3 184.6 187.4 184.5 187.6 184.5H195.2C195.4 184.5 195.5 184.6 195.5 184.8V186.1C195.5 186.3 195.4 186.4 195.2 186.4H189.3V194.1H194.1C194.3 194.1 194.4 194.2 194.4 194.4V195.7C194.4 195.9 194.3 196 194.1 196H189.3V204.7H195.1C195.3 204.7 195.4 204.8 195.4 205V206.3C195.4 206.5 195.3 206.6 195.1 206.6H187.6V206.7ZM166.2 206.7C166.1 206.7 165.9 206.6 165.9 206.5L161.5 188.6L161.6 206.4C161.6 206.5 161.6 206.6 161.5 206.6C161.4 206.7 161.4 206.7 161.3 206.7H159.9C159.7 206.7 159.6 206.6 159.6 206.4V184.8C159.6 184.6 159.7 184.5 159.9 184.5H162.1C162.2 184.5 162.4 184.6 162.4 184.7L166.9 202.9L166.7 184.8C166.7 184.7 166.7 184.6 166.8 184.6C166.9 184.6 166.9 184.5 167 184.5H168.5C168.7 184.5 168.8 184.6 168.8 184.8V206.4C168.8 206.6 168.7 206.7 168.5 206.7H166.2ZM152.9 206.7C152.7 206.7 152.6 206.6 152.6 206.4V184.8C152.6 184.6 152.7 184.5 152.9 184.5H154.5C154.7 184.5 154.8 184.6 154.8 184.8V206.4C154.8 206.6 154.7 206.7 154.5 206.7H152.9Z" fill="white" stroke="white" stroke-width="0.2899" stroke-miterlimit="10"/>
<path d="M124 197.001C123.8 197.001 123.6 196.801 123.6 196.601V193.101C123.6 192.901 123.8 192.701 124 192.701H125.7C125.9 192.701 126.1 192.901 126.1 193.101V196.601C126.1 196.801 125.9 197.001 125.7 197.001H124Z" fill="white" stroke="white" stroke-width="0.2899" stroke-miterlimit="10"/>
<path d="M267.099 197.001C266.899 197.001 266.699 196.801 266.699 196.601V193.101C266.699 192.901 266.899 192.701 267.099 192.701H268.799C268.999 192.701 269.199 192.901 269.199 193.101V196.601C269.199 196.801 268.999 197.001 268.799 197.001H267.099Z" fill="white" stroke="white" stroke-width="0.2899" stroke-miterlimit="10"/>
</svg>
